<?xml version="1.0" encoding="UTF-8"?>
<!DOCTYPE svg PUBLIC "-//W3C//DTD SVG 1.1//EN" "http://www.w3.org/Graphics/SVG/1.1/DTD/svg11.dtd">
<svg xmlns="http://www.w3.org/2000/svg" version="1.1" width="538px" height="403px" style="shape-rendering:geometricPrecision; text-rendering:geometricPrecision; image-rendering:optimizeQuality; fill-rule:evenodd; clip-rule:evenodd" xmlns:xlink="http://www.w3.org/1999/xlink">
<g><path style="opacity:1" fill="#fefefe" d="M -0.5,-0.5 C 178.833,-0.5 358.167,-0.5 537.5,-0.5C 537.5,133.833 537.5,268.167 537.5,402.5C 358.167,402.5 178.833,402.5 -0.5,402.5C -0.5,268.167 -0.5,133.833 -0.5,-0.5 Z"/></g>
<g><path style="opacity:1" fill="#69aa71" d="M 259.5,125.5 C 259.405,127.786 258.738,129.786 257.5,131.5C 257.5,129.833 257.5,128.167 257.5,126.5C 252.533,125.962 247.866,126.629 243.5,128.5C 243.5,127.833 243.5,127.167 243.5,126.5C 248.74,125.551 254.073,125.218 259.5,125.5 Z"/></g>
<g><path style="opacity:1" fill="#53a462" d="M 409.5,126.5 C 414.167,126.5 418.833,126.5 423.5,126.5C 423.784,128.415 423.451,130.081 422.5,131.5C 422.5,130.167 422.5,128.833 422.5,127.5C 418.818,127.335 415.152,127.501 411.5,128C 411.014,133.155 409.68,137.989 407.5,142.5C 408.384,137.196 409.051,131.863 409.5,126.5 Z"/></g>
<g><path style="opacity:1" fill="#8ece97" d="M 210.5,132.5 C 210.167,132.5 209.833,132.5 209.5,132.5C 163.167,132.5 116.833,132.5 70.5,132.5C 70.5,152.833 70.5,173.167 70.5,193.5C 75.8333,193.5 81.1667,193.5 86.5,193.5C 86.5,193.833 86.5,194.167 86.5,194.5C 80.642,194.822 74.9753,194.489 69.5,193.5C 69.5,173.167 69.5,152.833 69.5,132.5C 116.5,131.167 163.5,131.167 210.5,132.5 Z"/></g>
<g><path style="opacity:1" fill="#d4f9da" d="M 243.5,126.5 C 243.5,127.167 243.5,127.833 243.5,128.5C 243.5,128.833 243.5,129.167 243.5,129.5C 242.101,132.629 240.435,135.629 238.5,138.5C 239.309,134.063 240.976,130.063 243.5,126.5 Z"/></g>
<g><path style="opacity:1" fill="#e8feec" d="M 259.5,125.5 C 260.112,128.304 260.112,131.304 259.5,134.5C 269.015,134.173 278.348,134.506 287.5,135.5C 276.986,135.828 266.653,135.494 256.5,134.5C 256.557,133.391 256.89,132.391 257.5,131.5C 258.738,129.786 259.405,127.786 259.5,125.5 Z"/></g>
<g><path style="opacity:1" fill="#9cd9a5" d="M 256.5,134.5 C 266.653,135.494 276.986,135.828 287.5,135.5C 287.5,135.833 287.5,136.167 287.5,136.5C 276.813,136.832 266.146,136.499 255.5,135.5C 255.624,134.893 255.957,134.56 256.5,134.5 Z"/></g>
<g><path style="opacity:1" fill="#4ca659" d="M 257.5,131.5 C 256.89,132.391 256.557,133.391 256.5,134.5C 255.957,134.56 255.624,134.893 255.5,135.5C 266.146,136.499 276.813,136.832 287.5,136.5C 287.5,138.833 287.5,141.167 287.5,143.5C 281.5,143.5 275.5,143.5 269.5,143.5C 274.975,142.511 280.642,142.178 286.5,142.5C 286.5,140.833 286.5,139.167 286.5,137.5C 275.833,137.5 265.167,137.5 254.5,137.5C 254.5,135.5 254.5,133.5 254.5,131.5C 255.5,131.5 256.5,131.5 257.5,131.5 Z"/></g>
<g><path style="opacity:1" fill="#e3fee9" d="M 294.5,135.5 C 309.991,134.504 325.658,134.17 341.5,134.5C 341.469,150.542 341.469,166.375 341.5,182C 340.167,183 338.833,184 337.5,185C 330.555,186.23 323.555,186.73 316.5,186.5C 308.648,186.825 300.982,186.492 293.5,185.5C 305.838,185.667 318.171,185.5 330.5,185C 334.07,184.389 336.737,182.556 338.5,179.5C 339.09,178.234 339.59,176.901 340,175.5C 340.5,162.171 340.667,148.837 340.5,135.5C 325.167,135.5 309.833,135.5 294.5,135.5 Z"/></g>
<g><path style="opacity:1" fill="#3ab14a" d="M 257.5,131.5 C 256.5,131.5 255.5,131.5 254.5,131.5C 254.5,133.5 254.5,135.5 254.5,137.5C 265.167,137.5 275.833,137.5 286.5,137.5C 286.5,139.167 286.5,140.833 286.5,142.5C 280.642,142.178 274.975,142.511 269.5,143.5C 269.5,148.167 269.5,152.833 269.5,157.5C 269.369,158.376 269.702,159.043 270.5,159.5C 276.697,158.183 282.864,158.183 289,159.5C 289.72,161.112 289.554,162.612 288.5,164C 282.652,164.173 276.985,164.673 271.5,165.5C 271.5,166.167 271.5,166.833 271.5,167.5C 271.962,169.757 272.962,171.757 274.5,173.5C 278.917,176.441 283.417,179.107 288,181.5C 288.494,183.134 288.66,184.801 288.5,186.5C 285.482,186.296 282.482,185.963 279.5,185.5C 273.074,183.703 267.24,180.703 262,176.5C 260.357,177.315 258.857,178.315 257.5,179.5C 254.136,178.789 251.803,179.956 250.5,183C 243.961,186.58 236.961,188.747 229.5,189.5C 229.489,185.648 231.489,183.815 235.5,184C 237.041,182.629 238.375,181.129 239.5,179.5C 244.422,179.101 248.255,176.767 251,172.5C 252.606,170.291 253.606,167.958 254,165.5C 253.5,165 253,164.5 252.5,164C 245.174,163.5 237.841,163.334 230.5,163.5C 230.286,161.856 230.62,160.356 231.5,159C 239.677,158.829 247.677,158.329 255.5,157.5C 255.5,152.833 255.5,148.167 255.5,143.5C 251.838,143.034 248.505,143.701 245.5,145.5C 242.023,147.337 238.357,149.004 234.5,150.5C 234.167,149.833 233.833,149.167 233.5,148.5C 234.774,145.391 236.94,143.058 240,141.5C 240.473,139.221 241.473,137.221 243,135.5C 243.495,133.527 243.662,131.527 243.5,129.5C 243.5,129.167 243.5,128.833 243.5,128.5C 247.866,126.629 252.533,125.962 257.5,126.5C 257.5,128.167 257.5,129.833 257.5,131.5 Z"/></g>
<g><path style="opacity:1" fill="#e6fce9" d="M 463.5,141.5 C 449.833,141.5 436.167,141.5 422.5,141.5C 422.5,140.167 422.5,138.833 422.5,137.5C 422.5,135.5 422.5,133.5 422.5,131.5C 423.451,130.081 423.784,128.415 423.5,126.5C 418.833,126.5 414.167,126.5 409.5,126.5C 409.611,125.883 409.944,125.383 410.5,125C 415.167,124.333 419.833,124.333 424.5,125C 424.957,125.414 425.291,125.914 425.5,126.5C 424.507,131.11 423.84,135.777 423.5,140.5C 437.01,140.171 450.344,140.504 463.5,141.5 Z"/></g>
<g><path style="opacity:1" fill="#aee9b6" d="M 422.5,137.5 C 422.5,138.833 422.5,140.167 422.5,141.5C 436.167,141.5 449.833,141.5 463.5,141.5C 463.5,141.833 463.5,142.167 463.5,142.5C 449.5,142.5 435.5,142.5 421.5,142.5C 421.216,140.585 421.549,138.919 422.5,137.5 Z"/></g>
<g><path style="opacity:1" fill="#e9feed" d="M 69.5,132.5 C 69.5,152.833 69.5,173.167 69.5,193.5C 68.6236,193.631 67.9569,193.298 67.5,192.5C 68.1554,172.372 68.8221,152.372 69.5,132.5 Z"/></g>
<g><path style="opacity:1" fill="#589e62" d="M 209.5,132.5 C 209.833,132.5 210.167,132.5 210.5,132.5C 210.5,152.833 210.5,173.167 210.5,193.5C 209.5,193.5 208.5,193.5 207.5,193.5C 207.5,193.167 207.5,192.833 207.5,192.5C 208.167,192.5 208.5,192.167 208.5,191.5C 209.497,172.007 209.83,152.34 209.5,132.5 Z"/></g>
<g><path style="opacity:1" fill="#51a85f" d="M 243.5,129.5 C 243.662,131.527 243.495,133.527 243,135.5C 241.473,137.221 240.473,139.221 240,141.5C 236.94,143.058 234.774,145.391 233.5,148.5C 233.833,149.167 234.167,149.833 234.5,150.5C 238.357,149.004 242.023,147.337 245.5,145.5C 244.167,146.833 242.833,148.167 241.5,149.5C 240.833,149.5 240.5,149.833 240.5,150.5C 237.514,151.808 234.514,153.141 231.5,154.5C 230.52,151.914 230.187,149.247 230.5,146.5C 234.167,144.833 236.833,142.167 238.5,138.5C 240.435,135.629 242.101,132.629 243.5,129.5 Z"/></g>
<g><path style="opacity:1" fill="#dffae2" d="M 409.5,126.5 C 409.051,131.863 408.384,137.196 407.5,142.5C 393.5,142.5 379.5,142.5 365.5,142.5C 365.5,151.5 365.5,160.5 365.5,169.5C 369.833,169.5 374.167,169.5 378.5,169.5C 378.082,170.222 377.416,170.722 376.5,171C 372.961,171.282 369.461,171.782 366,172.5C 365.5,172.167 365,171.833 364.5,171.5C 363.94,161.342 363.107,151.342 362,141.5C 363.512,140.743 364.846,139.743 366,138.5C 366.5,139 367,139.5 367.5,140C 380.496,140.5 393.496,140.667 406.5,140.5C 406.999,136.51 407.499,132.51 408,128.5C 408.278,127.584 408.778,126.918 409.5,126.5 Z"/></g>
<g><path style="opacity:1" fill="#4eab5b" d="M 209.5,132.5 C 209.83,152.34 209.497,172.007 208.5,191.5C 208.826,172.257 208.493,153.09 207.5,134C 186.167,133.833 164.833,133.667 143.5,133.5C 119.803,133.37 96.1364,133.87 72.5,135C 71.5073,153.757 71.174,172.59 71.5,191.5C 76.1304,192.229 80.7971,192.563 85.5,192.5C 84.8505,177.794 85.5172,163.461 87.5,149.5C 87.8293,164.343 87.496,179.01 86.5,193.5C 81.1667,193.5 75.8333,193.5 70.5,193.5C 70.5,173.167 70.5,152.833 70.5,132.5C 116.833,132.5 163.167,132.5 209.5,132.5 Z"/></g>
<g><path style="opacity:1" fill="#51ab5e" d="M 293.5,135.5 C 293.833,135.5 294.167,135.5 294.5,135.5C 309.833,135.5 325.167,135.5 340.5,135.5C 340.667,148.837 340.5,162.171 340,175.5C 339.59,176.901 339.09,178.234 338.5,179.5C 337.833,179.5 337.167,179.5 336.5,179.5C 336.987,178.527 337.487,177.527 338,176.5C 338.667,163.833 338.667,151.167 338,138.5C 330.91,137.842 323.743,137.508 316.5,137.5C 309.257,137.508 302.09,137.842 295,138.5C 294.5,152.163 294.333,165.829 294.5,179.5C 293.504,165.01 293.171,150.343 293.5,135.5 Z"/></g>
<g><path style="opacity:1" fill="#38b249" d="M 336.5,179.5 C 334.299,181.084 331.966,182.584 329.5,184C 317.838,184.5 306.171,184.667 294.5,184.5C 294.5,182.833 294.5,181.167 294.5,179.5C 294.333,165.829 294.5,152.163 295,138.5C 302.09,137.842 309.257,137.508 316.5,137.5C 323.743,137.508 330.91,137.842 338,138.5C 338.667,151.167 338.667,163.833 338,176.5C 337.487,177.527 336.987,178.527 336.5,179.5 Z"/></g>
<g><path style="opacity:1" fill="#54a560" d="M 407.5,142.5 C 394.01,143.496 380.344,143.829 366.5,143.5C 366.334,151.507 366.5,159.507 367,167.5C 370.601,168.82 374.101,168.82 377.5,167.5C 378.167,162.167 378.833,156.833 379.5,151.5C 379.5,157.167 379.5,162.833 379.5,168.5C 379.5,169.167 379.167,169.5 378.5,169.5C 374.167,169.5 369.833,169.5 365.5,169.5C 365.5,160.5 365.5,151.5 365.5,142.5C 379.5,142.5 393.5,142.5 407.5,142.5 Z"/></g>
<g><path style="opacity:1" fill="#38b24a" d="M 208.5,191.5 C 208.5,192.167 208.167,192.5 207.5,192.5C 203.563,192.793 199.73,192.46 196,191.5C 195.825,176.925 195.325,162.425 194.5,148C 176.667,147.833 158.833,147.667 141,147.5C 122.821,147.5 104.987,148.167 87.5,149.5C 85.5172,163.461 84.8505,177.794 85.5,192.5C 80.7971,192.563 76.1304,192.229 71.5,191.5C 71.174,172.59 71.5073,153.757 72.5,135C 96.1364,133.87 119.803,133.37 143.5,133.5C 164.833,133.667 186.167,133.833 207.5,134C 208.493,153.09 208.826,172.257 208.5,191.5 Z"/></g>
<g><path style="opacity:1" fill="#fafdfa" d="M 236.5,156.5 C 236.351,155.448 236.517,154.448 237,153.5C 238.518,152.837 239.685,151.837 240.5,150.5C 240.5,149.833 240.833,149.5 241.5,149.5C 244.245,149.627 246.245,148.46 247.5,146C 249.81,145.503 252.143,145.337 254.5,145.5C 254.5,149.167 254.5,152.833 254.5,156.5C 248.5,156.5 242.5,156.5 236.5,156.5 Z"/></g>
<g><path style="opacity:1" fill="#e5feec" d="M 87.5,149.5 C 122.833,149.5 158.167,149.5 193.5,149.5C 193.5,164.167 193.5,178.833 193.5,193.5C 192.624,193.631 191.957,193.298 191.5,192.5C 192.826,178.637 192.826,164.804 191.5,151C 157.168,150.5 122.835,150.333 88.5,150.5C 89.1499,165.538 88.4833,180.205 86.5,194.5C 86.5,194.167 86.5,193.833 86.5,193.5C 87.496,179.01 87.8293,164.343 87.5,149.5 Z"/></g>
<g><path style="opacity:1" fill="#d0f8d6" d="M 255.5,157.5 C 247.5,157.5 239.5,157.5 231.5,157.5C 232.919,156.549 234.585,156.216 236.5,156.5C 242.5,156.5 248.5,156.5 254.5,156.5C 254.5,152.833 254.5,149.167 254.5,145.5C 252.143,145.337 249.81,145.503 247.5,146C 246.245,148.46 244.245,149.627 241.5,149.5C 242.833,148.167 244.167,146.833 245.5,145.5C 248.505,143.701 251.838,143.034 255.5,143.5C 255.5,148.167 255.5,152.833 255.5,157.5 Z"/></g>
<g><path style="opacity:1" fill="#fbfefb" d="M 446.5,175.5 C 443.029,181.324 438.195,185.658 432,188.5C 431.098,188.257 430.265,187.923 429.5,187.5C 425.652,180.466 422.319,173.133 419.5,165.5C 418.554,160.801 418.554,156.134 419.5,151.5C 429.172,151.334 438.839,151.5 448.5,152C 449.276,158.117 449.943,164.283 450.5,170.5C 447.09,170.384 445.756,172.05 446.5,175.5 Z"/></g>
<g><path style="opacity:1" fill="#e3fce8" d="M 230.5,146.5 C 230.187,149.247 230.52,151.914 231.5,154.5C 234.514,153.141 237.514,151.808 240.5,150.5C 239.685,151.837 238.518,152.837 237,153.5C 236.517,154.448 236.351,155.448 236.5,156.5C 234.585,156.216 232.919,156.549 231.5,157.5C 229.631,159.635 228.964,162.302 229.5,165.5C 227.859,163.797 226.859,161.63 226.5,159C 228.648,156.925 228.982,154.592 227.5,152C 228.229,149.942 229.229,148.109 230.5,146.5 Z"/></g>
<g><path style="opacity:1" fill="#cbfcd2" d="M 325.5,143.5 C 325.833,143.5 326.167,143.5 326.5,143.5C 326.828,154.014 326.494,164.347 325.5,174.5C 325.5,164.5 325.5,154.5 325.5,144.5C 319.5,144.5 313.5,144.5 307.5,144.5C 307.5,155.167 307.5,165.833 307.5,176.5C 313.545,176.697 319.545,176.363 325.5,175.5C 325.5,175.833 325.5,176.167 325.5,176.5C 319.225,177.418 312.892,177.751 306.5,177.5C 306.5,166.167 306.5,154.833 306.5,143.5C 312.833,143.5 319.167,143.5 325.5,143.5 Z"/></g>
<g><path style="opacity:1" fill="#84c48d" d="M 193.5,149.5 C 194.331,163.661 194.831,177.994 195,192.5C 199.066,193.464 203.233,193.797 207.5,193.5C 208.5,193.5 209.5,193.5 210.5,193.5C 204.833,194.833 199.167,194.833 193.5,193.5C 193.5,178.833 193.5,164.167 193.5,149.5 Z"/></g>
<g><path style="opacity:1" fill="#5ab067" d="M 207.5,192.5 C 207.5,192.833 207.5,193.167 207.5,193.5C 203.233,193.797 199.066,193.464 195,192.5C 194.831,177.994 194.331,163.661 193.5,149.5C 158.167,149.5 122.833,149.5 87.5,149.5C 104.987,148.167 122.821,147.5 141,147.5C 158.833,147.667 176.667,147.833 194.5,148C 195.325,162.425 195.825,176.925 196,191.5C 199.73,192.46 203.563,192.793 207.5,192.5 Z"/></g>
<g><path style="opacity:1" fill="#f1fef5" d="M 325.5,174.5 C 325.5,174.833 325.5,175.167 325.5,175.5C 319.545,176.363 313.545,176.697 307.5,176.5C 307.5,165.833 307.5,155.167 307.5,144.5C 313.5,144.5 319.5,144.5 325.5,144.5C 325.5,154.5 325.5,164.5 325.5,174.5 Z"/></g>
<g><path style="opacity:1" fill="#fdfefd" d="M 322.5,146.5 C 322.56,145.957 322.893,145.624 323.5,145.5C 324.498,155.144 324.832,164.81 324.5,174.5C 319.288,175.702 314.121,175.702 309,174.5C 308.5,165.506 308.334,156.506 308.5,147.5C 309.93,147.421 311.264,147.754 312.5,148.5C 316.143,145.78 319.477,146.113 322.5,149.5C 323.776,148.386 323.776,147.386 322.5,146.5 Z"/></g>
<g><path style="opacity:1" fill="#48a856" d="M 325.5,143.5 C 319.167,143.5 312.833,143.5 306.5,143.5C 306.5,154.833 306.5,166.167 306.5,177.5C 312.892,177.751 319.225,177.418 325.5,176.5C 322.572,177.82 319.239,178.486 315.5,178.5C 311.916,178.482 308.416,178.148 305,177.5C 304.231,165.8 304.397,154.133 305.5,142.5C 312.354,142.176 319.021,142.509 325.5,143.5 Z"/></g>
<g><path style="opacity:1" fill="#55aa5f" d="M 421.5,142.5 C 435.5,142.5 449.5,142.5 463.5,142.5C 463.833,142.5 464.167,142.5 464.5,142.5C 464.666,150.174 464.5,157.841 464,165.5C 459.599,166.467 455.099,166.8 450.5,166.5C 450.5,161.167 450.5,155.833 450.5,150.5C 439.245,149.891 428.245,150.558 417.5,152.5C 417.33,151.178 417.663,150.011 418.5,149C 429.219,148.596 439.886,148.262 450.5,148C 452.308,153.304 452.975,158.804 452.5,164.5C 455.833,164.5 459.167,164.5 462.5,164.5C 462.5,157.5 462.5,150.5 462.5,143.5C 448.656,143.829 434.99,143.496 421.5,142.5 Z"/></g>
<g><path style="opacity:1" fill="#4da75a" d="M 231.5,157.5 C 239.5,157.5 247.5,157.5 255.5,157.5C 247.677,158.329 239.677,158.829 231.5,159C 230.62,160.356 230.286,161.856 230.5,163.5C 237.841,163.334 245.174,163.5 252.5,164C 253,164.5 253.5,165 254,165.5C 253.606,167.958 252.606,170.291 251,172.5C 248.255,176.767 244.422,179.101 239.5,179.5C 242.473,177.194 245.14,174.527 247.5,171.5C 248.167,171.5 248.5,171.167 248.5,170.5C 250.145,169.521 251.479,168.188 252.5,166.5C 244.862,165.503 237.196,165.169 229.5,165.5C 228.964,162.302 229.631,159.635 231.5,157.5 Z"/></g>
<g><path style="opacity:1" fill="#549f61" d="M 269.5,157.5 C 276.5,157.5 283.5,157.5 290.5,157.5C 290.768,160.119 290.435,162.619 289.5,165C 283.509,165.499 277.509,165.666 271.5,165.5C 276.985,164.673 282.652,164.173 288.5,164C 289.554,162.612 289.72,161.112 289,159.5C 282.864,158.183 276.697,158.183 270.5,159.5C 269.702,159.043 269.369,158.376 269.5,157.5 Z"/></g>
<g><path style="opacity:1" fill="#e7feeb" d="M 229.5,165.5 C 237.196,165.169 244.862,165.503 252.5,166.5C 251.479,168.188 250.145,169.521 248.5,170.5C 248.5,169.5 248.5,168.5 248.5,167.5C 246.08,167.292 243.747,167.626 241.5,168.5C 237.084,168.225 233.084,167.225 229.5,165.5 Z"/></g>
<g><path style="opacity:1" fill="#fafdfa" d="M 285.5,177.5 C 282.55,176.692 279.883,175.358 277.5,173.5C 277.123,171.742 276.456,170.075 275.5,168.5C 280.758,168.537 286.091,168.204 291.5,167.5C 291.74,170.579 291.407,173.579 290.5,176.5C 288.955,177.452 287.288,177.785 285.5,177.5 Z"/></g>
<g><path style="opacity:1" fill="#e0fbe5" d="M 287.5,135.5 C 289.167,136.833 290.833,136.833 292.5,135.5C 292.5,152.167 292.5,168.833 292.5,185.5C 291.272,186.306 290.272,187.306 289.5,188.5C 289.817,185.428 289.484,182.428 288.5,179.5C 287.261,179.058 286.261,178.391 285.5,177.5C 287.288,177.785 288.955,177.452 290.5,176.5C 291.407,173.579 291.74,170.579 291.5,167.5C 286.091,168.204 280.758,168.537 275.5,168.5C 276.456,170.075 277.123,171.742 277.5,173.5C 275.139,171.806 273.139,169.806 271.5,167.5C 271.5,166.833 271.5,166.167 271.5,165.5C 277.509,165.666 283.509,165.499 289.5,165C 290.435,162.619 290.768,160.119 290.5,157.5C 283.5,157.5 276.5,157.5 269.5,157.5C 269.5,152.833 269.5,148.167 269.5,143.5C 275.5,143.5 281.5,143.5 287.5,143.5C 287.5,141.167 287.5,138.833 287.5,136.5C 287.5,136.167 287.5,135.833 287.5,135.5 Z"/></g>
<g><path style="opacity:1" fill="#fcfdfc" d="M 287.5,143.5 C 289.164,142.051 289.998,140.051 290,137.5C 291.743,143.416 291.91,149.416 290.5,155.5C 284.613,155.515 278.613,155.348 272.5,155C 270.66,152.174 269.994,149.007 270.5,145.5C 275.844,145.666 281.177,145.499 286.5,145C 287.056,144.617 287.389,144.117 287.5,143.5 Z"/></g>
<g><path style="opacity:1" fill="#e7fdeb" d="M 464.5,142.5 C 465.659,152.992 465.825,163.659 465,174.5C 462.285,179.045 458.785,182.712 454.5,185.5C 456.412,183.343 458.079,181.009 459.5,178.5C 461.303,176.519 462.97,174.352 464.5,172C 459.5,171.333 454.5,171.333 449.5,172C 448.177,172.816 447.511,173.983 447.5,175.5C 447.167,175.5 446.833,175.5 446.5,175.5C 445.756,172.05 447.09,170.384 450.5,170.5C 449.943,164.283 449.276,158.117 448.5,152C 438.839,151.5 429.172,151.334 419.5,151.5C 418.554,156.134 418.554,160.801 419.5,165.5C 419.167,165.5 418.833,165.5 418.5,165.5C 417.8,161.202 417.467,156.869 417.5,152.5C 428.245,150.558 439.245,149.891 450.5,150.5C 450.5,155.833 450.5,161.167 450.5,166.5C 455.099,166.8 459.599,166.467 464,165.5C 464.5,157.841 464.666,150.174 464.5,142.5 Z"/></g>
<g><path style="opacity:1" fill="#52a45b" d="M 326.5,143.5 C 327.659,153.992 327.825,164.659 327,175.5C 326.617,176.056 326.117,176.389 325.5,176.5C 325.5,176.167 325.5,175.833 325.5,175.5C 325.5,175.167 325.5,174.833 325.5,174.5C 326.494,164.347 326.828,154.014 326.5,143.5 Z"/></g>
<g><path style="opacity:1" fill="#defee5" d="M 399.5,163.5 C 397.527,167.457 395.194,171.124 392.5,174.5C 393.628,171.562 394.795,168.562 396,165.5C 396.816,164.177 397.983,163.511 399.5,163.5 Z"/></g>
<g><path style="opacity:1" fill="#5aaf65" d="M 392.5,176.5 C 392.5,176.167 392.5,175.833 392.5,175.5C 392.5,175.167 392.5,174.833 392.5,174.5C 395.194,171.124 397.527,167.457 399.5,163.5C 399.5,163.167 399.5,162.833 399.5,162.5C 401.391,159.043 403.058,155.376 404.5,151.5C 396.193,150.502 387.86,150.169 379.5,150.5C 386.617,148.746 394.117,147.746 402,147.5C 403.107,147.585 404.107,147.919 405,148.5C 404.994,153.543 404.328,158.543 403,163.5C 400.006,166.82 397.506,170.487 395.5,174.5C 394.643,175.425 393.643,176.092 392.5,176.5 Z"/></g>
<g><path style="opacity:1" fill="#58a35f" d="M 459.5,178.5 C 460.15,176.565 460.483,174.565 460.5,172.5C 455.607,171.738 451.274,172.738 447.5,175.5C 447.511,173.983 448.177,172.816 449.5,172C 454.5,171.333 459.5,171.333 464.5,172C 462.97,174.352 461.303,176.519 459.5,178.5 Z"/></g>
<g><path style="opacity:1" fill="#39b14a" d="M 422.5,131.5 C 422.5,133.5 422.5,135.5 422.5,137.5C 421.549,138.919 421.216,140.585 421.5,142.5C 434.99,143.496 448.656,143.829 462.5,143.5C 462.5,150.5 462.5,157.5 462.5,164.5C 459.167,164.5 455.833,164.5 452.5,164.5C 452.975,158.804 452.308,153.304 450.5,148C 439.886,148.262 429.219,148.596 418.5,149C 417.663,150.011 417.33,151.178 417.5,152.5C 417.467,156.869 417.8,161.202 418.5,165.5C 419.284,171.86 421.117,177.86 424,183.5C 425.432,185.439 427.265,186.772 429.5,187.5C 430.265,187.923 431.098,188.257 432,188.5C 438.195,185.658 443.029,181.324 446.5,175.5C 446.833,175.5 447.167,175.5 447.5,175.5C 451.274,172.738 455.607,171.738 460.5,172.5C 460.483,174.565 460.15,176.565 459.5,178.5C 454.417,182.402 449.417,186.569 444.5,191C 441.612,192.092 438.945,193.592 436.5,195.5C 436.624,196.107 436.957,196.44 437.5,196.5C 437.5,196.833 437.5,197.167 437.5,197.5C 440.5,202.5 444.5,206.5 449.5,209.5C 449.833,209.5 450.167,209.5 450.5,209.5C 450.369,210.239 450.536,210.906 451,211.5C 456.216,215.802 461.716,219.635 467.5,223C 468.793,223.49 470.127,223.657 471.5,223.5C 471.5,225.167 471.5,226.833 471.5,228.5C 463.746,227.374 457.246,224.041 452,218.5C 449.88,219.605 447.713,219.605 445.5,218.5C 443.755,214.928 440.921,212.594 437,211.5C 436.517,210.552 436.351,209.552 436.5,208.5C 433.892,208.6 431.558,207.933 429.5,206.5C 428.833,206.167 428.167,205.833 427.5,205.5C 425.748,203.754 424.415,201.754 423.5,199.5C 421.489,195.97 419.655,192.303 418,188.5C 416.887,187.695 415.721,187.028 414.5,186.5C 413.5,185.167 412.5,183.833 411.5,182.5C 410.872,179.91 409.705,177.577 408,175.5C 406.961,176.71 405.794,177.71 404.5,178.5C 401.22,181.043 398.387,184.043 396,187.5C 395.173,200.34 395.34,213.007 396.5,225.5C 397.5,226.833 398.5,226.833 399.5,225.5C 401.167,225.5 402.833,225.5 404.5,225.5C 411.945,224.138 419.279,222.471 426.5,220.5C 426.657,221.873 426.49,223.207 426,224.5C 421.972,226.248 418.472,228.582 415.5,231.5C 413.046,233.06 410.38,234.06 407.5,234.5C 400.5,235.167 393.5,235.833 386.5,236.5C 386.667,225.495 386.5,214.495 386,203.5C 384.933,201.717 383.433,201.217 381.5,202C 379.808,203.307 378.475,204.807 377.5,206.5C 373.039,207.383 369.705,209.717 367.5,213.5C 363.716,214.321 360.049,215.321 356.5,216.5C 356.343,215.127 356.51,213.793 357,212.5C 369.307,205.025 379.474,195.358 387.5,183.5C 388.786,180.883 390.453,178.55 392.5,176.5C 393.643,176.092 394.643,175.425 395.5,174.5C 397.506,170.487 400.006,166.82 403,163.5C 404.328,158.543 404.994,153.543 405,148.5C 404.107,147.919 403.107,147.585 402,147.5C 394.117,147.746 386.617,148.746 379.5,150.5C 379.5,150.833 379.5,151.167 379.5,151.5C 378.833,156.833 378.167,162.167 377.5,167.5C 374.101,168.82 370.601,168.82 367,167.5C 366.5,159.507 366.334,151.507 366.5,143.5C 380.344,143.829 394.01,143.496 407.5,142.5C 409.68,137.989 411.014,133.155 411.5,128C 415.152,127.501 418.818,127.335 422.5,127.5C 422.5,128.833 422.5,130.167 422.5,131.5 Z"/></g>
<g><path style="opacity:1" fill="#e1fee3" d="M 379.5,150.5 C 387.86,150.169 396.193,150.502 404.5,151.5C 403.058,155.376 401.391,159.043 399.5,162.5C 400.301,158.765 401.301,155.099 402.5,151.5C 395.411,151.116 388.411,151.616 381.5,153C 380.855,158.267 380.188,163.433 379.5,168.5C 379.5,162.833 379.5,157.167 379.5,151.5C 379.5,151.167 379.5,150.833 379.5,150.5 Z"/></g>
<g><path style="opacity:1" fill="#37b248" d="M 377.5,167.5 C 374.428,167.817 371.428,167.484 368.5,166.5C 370.167,165.167 371.833,163.833 373.5,162.5C 371.659,161.77 369.825,161.103 368,160.5C 367.501,155.177 367.334,149.844 367.5,144.5C 371.514,144.334 375.514,144.501 379.5,145C 378,148.086 376.667,151.253 375.5,154.5C 377.185,158.655 377.851,162.988 377.5,167.5 Z"/></g>
<g><path style="opacity:1" fill="#4dad5a" d="M 418.5,165.5 C 418.833,165.5 419.167,165.5 419.5,165.5C 422.319,173.133 425.652,180.466 429.5,187.5C 427.265,186.772 425.432,185.439 424,183.5C 421.117,177.86 419.284,171.86 418.5,165.5 Z"/></g>
<g><path style="opacity:1" fill="#e2fae4" d="M 247.5,171.5 C 245.14,174.527 242.473,177.194 239.5,179.5C 237.5,180.167 235.5,180.833 233.5,181.5C 233.389,180.883 233.056,180.383 232.5,180C 237.903,177.738 242.903,174.904 247.5,171.5 Z"/></g>
<g><path style="opacity:1" fill="#56aa64" d="M 271.5,167.5 C 273.139,169.806 275.139,171.806 277.5,173.5C 279.883,175.358 282.55,176.692 285.5,177.5C 286.261,178.391 287.261,179.058 288.5,179.5C 289.484,182.428 289.817,185.428 289.5,188.5C 287.139,188.326 284.806,187.993 282.5,187.5C 281.29,187.068 280.29,186.401 279.5,185.5C 282.482,185.963 285.482,186.296 288.5,186.5C 288.66,184.801 288.494,183.134 288,181.5C 283.417,179.107 278.917,176.441 274.5,173.5C 272.962,171.757 271.962,169.757 271.5,167.5 Z"/></g>
<g><path style="opacity:1" fill="#dffee4" d="M 392.5,175.5 C 392.5,175.833 392.5,176.167 392.5,176.5C 390.453,178.55 388.786,180.883 387.5,183.5C 386.833,183.833 386.167,184.167 385.5,184.5C 386.759,181.51 388.092,178.51 389.5,175.5C 390.5,175.5 391.5,175.5 392.5,175.5 Z"/></g>
<g><path style="opacity:1" fill="#9fc06c" d="M 159.5,177.5 C 159.5,178.167 159.5,178.833 159.5,179.5C 159.5,180.167 159.5,180.833 159.5,181.5C 158.504,181.414 157.671,181.748 157,182.5C 156.047,185.432 155.547,188.432 155.5,191.5C 153.949,186.286 154.783,181.286 158,176.5C 158.383,177.056 158.883,177.389 159.5,177.5 Z"/></g>
<g><path style="opacity:1" fill="#e7fcea" d="M 411.5,182.5 C 410.193,181.847 408.86,181.18 407.5,180.5C 406.095,181.994 404.429,182.994 402.5,183.5C 403.167,181.833 403.833,180.167 404.5,178.5C 405.794,177.71 406.961,176.71 408,175.5C 409.705,177.577 410.872,179.91 411.5,182.5 Z"/></g>
<g><path style="opacity:1" fill="#6bb174" d="M 292.5,135.5 C 292.833,135.5 293.167,135.5 293.5,135.5C 293.171,150.343 293.504,165.01 294.5,179.5C 294.5,181.167 294.5,182.833 294.5,184.5C 306.171,184.667 317.838,184.5 329.5,184C 331.966,182.584 334.299,181.084 336.5,179.5C 337.167,179.5 337.833,179.5 338.5,179.5C 336.737,182.556 334.07,184.389 330.5,185C 318.171,185.5 305.838,185.667 293.5,185.5C 293.167,185.5 292.833,185.5 292.5,185.5C 292.5,168.833 292.5,152.167 292.5,135.5 Z"/></g>
<g><path style="opacity:1" fill="#8dc245" d="M 159.5,181.5 C 159.827,186.544 159.494,191.544 158.5,196.5C 157.304,194.855 156.304,193.189 155.5,191.5C 155.547,188.432 156.047,185.432 157,182.5C 157.671,181.748 158.504,181.414 159.5,181.5 Z"/></g>
<g><path style="opacity:1" fill="#f0fef4" d="M 292.5,185.5 C 292.833,185.5 293.167,185.5 293.5,185.5C 300.982,186.492 308.648,186.825 316.5,186.5C 315.048,187.302 313.382,187.802 311.5,188C 318.492,188.5 325.492,188.666 332.5,188.5C 332.667,203.17 332.5,217.837 332,232.5C 331.768,233.737 331.268,234.737 330.5,235.5C 330.5,234.5 330.5,233.5 330.5,232.5C 330.5,232.167 330.5,231.833 330.5,231.5C 331.496,218.01 331.829,204.344 331.5,190.5C 317.5,189.833 303.5,189.167 289.5,188.5C 290.272,187.306 291.272,186.306 292.5,185.5 Z"/></g>
<g><path style="opacity:1" fill="#56a961" d="M 459.5,178.5 C 458.079,181.009 456.412,183.343 454.5,185.5C 449.103,189.561 443.436,193.227 437.5,196.5C 436.957,196.44 436.624,196.107 436.5,195.5C 438.945,193.592 441.612,192.092 444.5,191C 449.417,186.569 454.417,182.402 459.5,178.5 Z"/></g>
<g><path style="opacity:1" fill="#50a85d" d="M 239.5,179.5 C 238.375,181.129 237.041,182.629 235.5,184C 231.489,183.815 229.489,185.648 229.5,189.5C 236.961,188.747 243.961,186.58 250.5,183C 251.803,179.956 254.136,178.789 257.5,179.5C 257.167,180.167 256.833,180.833 256.5,181.5C 252.665,183.25 248.999,185.25 245.5,187.5C 241.605,188.462 237.939,189.796 234.5,191.5C 232.139,191.674 229.806,192.007 227.5,192.5C 227.187,189.753 227.52,187.086 228.5,184.5C 230.396,183.725 232.063,182.725 233.5,181.5C 235.5,180.833 237.5,180.167 239.5,179.5 Z"/></g>
<g><path style="opacity:1" fill="#ebfdee" d="M 279.5,185.5 C 280.29,186.401 281.29,187.068 282.5,187.5C 282.611,188.117 282.944,188.617 283.5,189C 270.5,189.667 257.5,189.667 244.5,189C 245.056,188.617 245.389,188.117 245.5,187.5C 248.999,185.25 252.665,183.25 256.5,181.5C 256.833,180.833 257.167,180.167 257.5,179.5C 258.857,178.315 260.357,177.315 262,176.5C 267.24,180.703 273.074,183.703 279.5,185.5 Z"/></g>
<g><path style="opacity:1" fill="#fbfdfd" d="M 256.5,181.5 C 258.228,180.621 260.061,179.954 262,179.5C 264.864,180.068 265.698,181.568 264.5,184C 269.211,184.165 273.877,185.332 278.5,187.5C 268.851,188.665 259.184,188.832 249.5,188C 252.288,186.281 254.621,184.115 256.5,181.5 Z"/></g>
<g><path style="opacity:1" fill="#f6fcee" d="M 159.5,177.5 C 158.883,177.389 158.383,177.056 158,176.5C 154.783,181.286 153.949,186.286 155.5,191.5C 155.5,193.167 155.5,194.833 155.5,196.5C 156.91,199.95 157.576,203.616 157.5,207.5C 152.344,208.706 147.344,210.372 142.5,212.5C 141.508,212.672 140.842,212.338 140.5,211.5C 141.338,211.158 141.672,210.492 141.5,209.5C 142.461,207.735 142.795,205.735 142.5,203.5C 143.117,203.611 143.617,203.944 144,204.5C 145.405,202.809 146.572,200.976 147.5,199C 149.669,198.571 151.669,199.071 153.5,200.5C 154.421,197.099 153.421,194.265 150.5,192C 151.98,192.058 152.813,190.891 153,188.5C 153.798,186.741 153.631,185.074 152.5,183.5C 151.833,185.5 151.167,187.5 150.5,189.5C 148.333,188.208 146,187.375 143.5,187C 144.965,184.201 147.132,182.035 150,180.5C 150.471,178.754 151.138,177.087 152,175.5C 153.908,177.907 155.908,177.907 158,175.5C 159.03,175.836 159.53,176.503 159.5,177.5 Z"/></g>
<g><path style="opacity:1" fill="#edfeee" d="M 402.5,183.5 C 401.612,186.243 400.445,188.91 399,191.5C 398.5,202.161 398.333,212.828 398.5,223.5C 402.869,223.533 407.202,223.2 411.5,222.5C 409.221,223.651 406.888,224.651 404.5,225.5C 402.833,225.5 401.167,225.5 399.5,225.5C 397.521,213.88 396.854,201.88 397.5,189.5C 398.443,186.891 400.11,184.891 402.5,183.5 Z"/></g>
<g><path style="opacity:1" fill="#dffbe3" d="M 414.5,188.5 C 417.122,192.457 420.122,196.124 423.5,199.5C 424.415,201.754 425.748,203.754 427.5,205.5C 425.956,205.297 424.622,204.63 423.5,203.5C 422.868,201.263 421.535,199.597 419.5,198.5C 417.057,195.474 415.391,192.141 414.5,188.5 Z"/></g>
<g><path style="opacity:1" fill="#50a65c" d="M 414.5,186.5 C 415.721,187.028 416.887,187.695 418,188.5C 419.655,192.303 421.489,195.97 423.5,199.5C 420.122,196.124 417.122,192.457 414.5,188.5C 414.5,187.833 414.5,187.167 414.5,186.5 Z"/></g>
<g><path style="opacity:1" fill="#ddfbe1" d="M 120.5,185.5 C 120.167,185.5 119.833,185.5 119.5,185.5C 119.617,183.516 118.95,181.85 117.5,180.5C 115.183,186.006 114.849,191.673 116.5,197.5C 118.129,199.196 117.796,200.196 115.5,200.5C 115.734,196.765 114.734,193.432 112.5,190.5C 113.866,187.308 114.699,183.974 115,180.5C 119.675,178.666 121.508,180.333 120.5,185.5 Z"/></g>
<g><path style="opacity:1" fill="#4da957" d="M 119.5,185.5 C 119.756,189.269 119.423,192.936 118.5,196.5C 118.5,196.833 118.5,197.167 118.5,197.5C 117.833,197.5 117.167,197.5 116.5,197.5C 114.849,191.673 115.183,186.006 117.5,180.5C 118.95,181.85 119.617,183.516 119.5,185.5 Z"/></g>
<g><path style="opacity:1" fill="#75c07b" d="M 119.5,185.5 C 119.833,185.5 120.167,185.5 120.5,185.5C 121.64,187.468 122.64,190.135 123.5,193.5C 123.552,195.903 123.219,198.236 122.5,200.5C 122.167,200.5 121.833,200.5 121.5,200.5C 121.201,198.545 120.201,197.211 118.5,196.5C 119.423,192.936 119.756,189.269 119.5,185.5 Z"/></g>
<g><path style="opacity:1" fill="#a0c371" d="M 165.5,183.5 C 168.103,189.819 168.103,196.152 165.5,202.5C 163.787,201.365 163.12,199.698 163.5,197.5C 162.359,194.36 162.192,191.027 163,187.5C 163.2,185.68 164.034,184.347 165.5,183.5 Z"/></g>
<g><path style="opacity:1" fill="#8ec047" d="M 163.5,197.5 C 163.183,194.428 163.516,191.428 164.5,188.5C 164.833,190 165.167,191.5 165.5,193C 165.431,194.986 164.765,196.486 163.5,197.5 Z"/></g>
<g><path style="opacity:1" fill="#fdf3d5" d="M 142.5,203.5 C 142.795,205.735 142.461,207.735 141.5,209.5C 141.167,209.5 140.833,209.5 140.5,209.5C 140.664,206.813 140.497,204.146 140,201.5C 139.617,200.944 139.117,200.611 138.5,200.5C 138.663,198.143 138.497,195.81 138,193.5C 137.617,192.944 137.117,192.611 136.5,192.5C 133.36,191.359 130.027,191.192 126.5,192C 124.887,194.228 124.22,196.728 124.5,199.5C 124.5,199.833 124.5,200.167 124.5,200.5C 124.167,200.5 123.833,200.5 123.5,200.5C 123.167,200.5 122.833,200.5 122.5,200.5C 123.219,198.236 123.552,195.903 123.5,193.5C 124.404,192.791 124.737,191.791 124.5,190.5C 129.179,190.334 133.845,190.501 138.5,191C 139.781,195.202 141.114,199.369 142.5,203.5 Z"/></g>
<g><path style="opacity:1" fill="#97bd5d" d="M 159.5,181.5 C 161.017,183.462 161.684,185.795 161.5,188.5C 161.567,192.905 160.4,196.905 158,200.5C 157.066,199.142 156.232,197.808 155.5,196.5C 155.5,194.833 155.5,193.167 155.5,191.5C 156.304,193.189 157.304,194.855 158.5,196.5C 159.494,191.544 159.827,186.544 159.5,181.5 Z"/></g>
<g><path style="opacity:1" fill="#f0c17a" d="M 136.5,192.5 C 137.117,192.611 137.617,192.944 138,193.5C 138.497,195.81 138.663,198.143 138.5,200.5C 135.428,199.682 135.095,198.515 137.5,197C 133.843,196.949 130.177,197.282 126.5,198C 127.756,198.417 128.423,199.25 128.5,200.5C 127.167,200.167 125.833,199.833 124.5,199.5C 124.22,196.728 124.887,194.228 126.5,192C 130.027,191.192 133.36,191.359 136.5,192.5 Z"/></g>
<g><path style="opacity:1" fill="#e39a44" d="M 136.5,192.5 C 136.586,193.496 136.252,194.329 135.5,195C 132.232,196.213 128.899,196.546 125.5,196C 128.514,192.966 132.181,191.799 136.5,192.5 Z"/></g>
<g><path style="opacity:1" fill="#d1fcd7" d="M 245.5,187.5 C 245.389,188.117 245.056,188.617 244.5,189C 257.5,189.667 270.5,189.667 283.5,189C 282.944,188.617 282.611,188.117 282.5,187.5C 284.806,187.993 287.139,188.326 289.5,188.5C 303.5,189.167 317.5,189.833 331.5,190.5C 301.5,190.5 271.5,190.5 241.5,190.5C 241.5,207.5 241.5,224.5 241.5,241.5C 240.668,224.672 240.168,207.672 240,190.5C 238.301,191.406 236.467,191.739 234.5,191.5C 237.939,189.796 241.605,188.462 245.5,187.5 Z"/></g>
<g><path style="opacity:1" fill="#e3fde7" d="M 377.5,193.5 C 373.722,198.617 369.055,202.617 363.5,205.5C 364.767,203.227 366.433,201.227 368.5,199.5C 371.566,197.404 374.566,195.404 377.5,193.5 Z"/></g>
<g><path style="opacity:1" fill="#51a35d" d="M 404.5,178.5 C 403.833,180.167 403.167,181.833 402.5,183.5C 400.11,184.891 398.443,186.891 397.5,189.5C 396.505,201.322 396.172,213.322 396.5,225.5C 395.34,213.007 395.173,200.34 396,187.5C 398.387,184.043 401.22,181.043 404.5,178.5 Z"/></g>
<g><path style="opacity:1" fill="#60ad6c" d="M 437.5,197.5 C 441.833,201.167 445.833,205.167 449.5,209.5C 444.5,206.5 440.5,202.5 437.5,197.5 Z"/></g>
<g><path style="opacity:1" fill="#e0fde4" d="M 118.5,196.5 C 120.201,197.211 121.201,198.545 121.5,200.5C 121.715,202.179 121.048,203.179 119.5,203.5C 119.167,203.5 118.833,203.5 118.5,203.5C 118.5,201.5 118.5,199.5 118.5,197.5C 118.5,197.167 118.5,196.833 118.5,196.5 Z"/></g>
<g><path style="opacity:1" fill="#e0a44e" d="M 138.5,200.5 C 139.117,200.611 139.617,200.944 140,201.5C 140.497,204.146 140.664,206.813 140.5,209.5C 139.833,209.5 139.167,209.5 138.5,209.5C 137.5,208.833 136.5,208.167 135.5,207.5C 136.833,207.5 138.167,207.5 139.5,207.5C 140.373,202.706 138.373,200.373 133.5,200.5C 133.5,202.5 133.5,204.5 133.5,206.5C 132.508,206.672 131.842,206.338 131.5,205.5C 131.808,203.076 131.474,200.743 130.5,198.5C 129.818,199.243 129.151,199.909 128.5,200.5C 128.423,199.25 127.756,198.417 126.5,198C 130.177,197.282 133.843,196.949 137.5,197C 135.095,198.515 135.428,199.682 138.5,200.5 Z"/></g>
<g><path style="opacity:1" fill="#f1fef3" d="M 233.5,181.5 C 232.063,182.725 230.396,183.725 228.5,184.5C 227.52,187.086 227.187,189.753 227.5,192.5C 229.806,192.007 232.139,191.674 234.5,191.5C 236.467,191.739 238.301,191.406 240,190.5C 240.168,207.672 240.668,224.672 241.5,241.5C 241.5,241.833 241.5,242.167 241.5,242.5C 239.515,226.2 238.848,209.534 239.5,192.5C 235.714,194.717 231.881,196.05 228,196.5C 227.19,194.694 226.024,193.194 224.5,192C 225.348,189.23 225.681,186.397 225.5,183.5C 228.004,182.361 230.67,181.694 233.5,181.5 Z"/></g>
<g><path style="opacity:1" fill="#a4ceb4" d="M 116.5,197.5 C 117.167,197.5 117.833,197.5 118.5,197.5C 118.5,199.5 118.5,201.5 118.5,203.5C 116.084,202.032 113.417,201.365 110.5,201.5C 111.919,200.549 113.585,200.216 115.5,200.5C 117.796,200.196 118.129,199.196 116.5,197.5 Z"/></g>
<g><path style="opacity:1" fill="#b5c289" d="M 121.5,200.5 C 121.833,200.5 122.167,200.5 122.5,200.5C 122.833,200.5 123.167,200.5 123.5,200.5C 123.5,201.833 123.5,203.167 123.5,204.5C 122.833,204.5 122.167,204.5 121.5,204.5C 120.508,204.672 119.842,204.338 119.5,203.5C 121.048,203.179 121.715,202.179 121.5,200.5 Z"/></g>
<g><path style="opacity:1" fill="#e5972f" d="M 131.5,205.5 C 130.5,205.5 129.5,205.5 128.5,205.5C 125.741,205.067 124.408,203.4 124.5,200.5C 124.5,200.167 124.5,199.833 124.5,199.5C 125.833,199.833 127.167,200.167 128.5,200.5C 129.151,199.909 129.818,199.243 130.5,198.5C 131.474,200.743 131.808,203.076 131.5,205.5 Z"/></g>
<g><path style="opacity:1" fill="#a8ba83" d="M 148.5,199.5 C 149.634,201.966 149.801,204.633 149,207.5C 147.188,204.954 147.022,202.288 148.5,199.5 Z"/></g>
<g><path style="opacity:1" fill="#ea952c" d="M 135.5,207.5 C 134.508,207.672 133.842,207.338 133.5,206.5C 133.5,204.5 133.5,202.5 133.5,200.5C 138.373,200.373 140.373,202.706 139.5,207.5C 138.167,207.5 136.833,207.5 135.5,207.5 Z"/></g>
<g><path style="opacity:1" fill="#ad9841" d="M 123.5,200.5 C 123.833,200.5 124.167,200.5 124.5,200.5C 124.408,203.4 125.741,205.067 128.5,205.5C 126.708,205.634 125.042,205.301 123.5,204.5C 123.5,203.167 123.5,201.833 123.5,200.5 Z"/></g>
<g><path style="opacity:1" fill="#e4f3d3" d="M 159.5,179.5 C 161.272,181.29 163.272,182.623 165.5,183.5C 164.034,184.347 163.2,185.68 163,187.5C 162.192,191.027 162.359,194.36 163.5,197.5C 163.12,199.698 163.787,201.365 165.5,202.5C 165.5,203.833 165.5,205.167 165.5,206.5C 162.873,207.092 160.206,207.425 157.5,207.5C 157.576,203.616 156.91,199.95 155.5,196.5C 156.232,197.808 157.066,199.142 158,200.5C 160.4,196.905 161.567,192.905 161.5,188.5C 161.684,185.795 161.017,183.462 159.5,181.5C 159.5,180.833 159.5,180.167 159.5,179.5 Z"/></g>
<g><path style="opacity:1" fill="#1b643a" d="M 110.5,201.5 C 113.417,201.365 116.084,202.032 118.5,203.5C 118.833,203.5 119.167,203.5 119.5,203.5C 119.842,204.338 120.508,204.672 121.5,204.5C 121.5,205.5 121.5,206.5 121.5,207.5C 126.544,207.48 131.378,208.48 136,210.5C 137.07,210.472 137.903,210.139 138.5,209.5C 139.167,209.5 139.833,209.5 140.5,209.5C 140.833,209.5 141.167,209.5 141.5,209.5C 141.672,210.492 141.338,211.158 140.5,211.5C 138.967,212.431 137.3,213.098 135.5,213.5C 126.255,209.451 116.588,207.451 106.5,207.5C 105.549,206.081 105.216,204.415 105.5,202.5C 107.415,202.784 109.081,202.451 110.5,201.5 Z"/></g>
<g><path style="opacity:1" fill="#276020" d="M 121.5,204.5 C 122.167,204.5 122.833,204.5 123.5,204.5C 125.042,205.301 126.708,205.634 128.5,205.5C 129.5,205.5 130.5,205.5 131.5,205.5C 131.842,206.338 132.508,206.672 133.5,206.5C 133.842,207.338 134.508,207.672 135.5,207.5C 136.5,208.167 137.5,208.833 138.5,209.5C 137.903,210.139 137.07,210.472 136,210.5C 131.378,208.48 126.544,207.48 121.5,207.5C 121.5,206.5 121.5,205.5 121.5,204.5 Z"/></g>
<g><path style="opacity:1" fill="#bcf3c3" d="M 382.5,203.5 C 382.56,202.957 382.893,202.624 383.5,202.5C 384.499,214.148 384.832,225.814 384.5,237.5C 383.833,226.167 383.167,214.833 382.5,203.5 Z"/></g>
<g><path style="opacity:1" fill="#c6fdce" d="M 397.5,189.5 C 396.854,201.88 397.521,213.88 399.5,225.5C 398.5,226.833 397.5,226.833 396.5,225.5C 396.172,213.322 396.505,201.322 397.5,189.5 Z"/></g>
<g><path style="opacity:1" fill="#4faa5b" d="M 429.5,206.5 C 431.558,207.933 433.892,208.6 436.5,208.5C 436.351,209.552 436.517,210.552 437,211.5C 440.921,212.594 443.755,214.928 445.5,218.5C 442.366,217.099 439.366,215.432 436.5,213.5C 433.861,211.527 431.527,209.194 429.5,206.5 Z"/></g>
<g><path style="opacity:1" fill="#51a35f" d="M 377.5,206.5 C 374.554,209.313 371.221,211.646 367.5,213.5C 369.705,209.717 373.039,207.383 377.5,206.5 Z"/></g>
<g><path style="opacity:1" fill="#1a623a" d="M 108.5,213.5 C 107.599,212.71 106.932,211.71 106.5,210.5C 115.603,209.46 124.27,211.293 132.5,216C 130.833,217.167 129.167,218.333 127.5,219.5C 121.403,216.69 115.07,214.69 108.5,213.5 Z"/></g>
<g><path style="opacity:1" fill="#cdf1de" d="M 175.5,209.5 C 175.5,210.167 175.5,210.833 175.5,211.5C 174.833,211.833 174.167,212.167 173.5,212.5C 159.574,213.137 147.574,218.137 137.5,227.5C 137.631,226.761 137.464,226.094 137,225.5C 136.29,226.973 135.124,227.64 133.5,227.5C 145.105,216.286 159.105,210.286 175.5,209.5 Z"/></g>
<g><path style="opacity:1" fill="#d1f3e4" d="M 106.5,207.5 C 116.588,207.451 126.255,209.451 135.5,213.5C 137.3,213.098 138.967,212.431 140.5,211.5C 140.842,212.338 141.508,212.672 142.5,212.5C 135.642,216.02 129.642,220.687 124.5,226.5C 123.005,226.011 121.671,225.345 120.5,224.5C 123.262,224.114 124.262,222.781 123.5,220.5C 119.248,218.015 114.915,217.015 110.5,217.5C 109.655,216.329 108.989,214.995 108.5,213.5C 115.07,214.69 121.403,216.69 127.5,219.5C 129.167,218.333 130.833,217.167 132.5,216C 124.27,211.293 115.603,209.46 106.5,210.5C 105.375,209.652 105.375,208.652 106.5,207.5 Z"/></g>
<g><path style="opacity:1" fill="#5aa663" d="M 387.5,183.5 C 379.474,195.358 369.307,205.025 357,212.5C 356.51,213.793 356.343,215.127 356.5,216.5C 360.049,215.321 363.716,214.321 367.5,213.5C 367.5,213.833 367.5,214.167 367.5,214.5C 363.615,216.026 359.781,217.692 356,219.5C 355.333,216.833 355.333,214.167 356,211.5C 358.844,209.841 361.344,207.841 363.5,205.5C 369.055,202.617 373.722,198.617 377.5,193.5C 380.881,191.12 383.547,188.12 385.5,184.5C 386.167,184.167 386.833,183.833 387.5,183.5 Z"/></g>
<g><path style="opacity:1" fill="#52a75f" d="M 450.5,209.5 C 454.246,212.585 458.246,215.251 462.5,217.5C 465.5,219.5 468.5,221.5 471.5,223.5C 470.127,223.657 468.793,223.49 467.5,223C 461.716,219.635 456.216,215.802 451,211.5C 450.536,210.906 450.369,210.239 450.5,209.5 Z"/></g>
<g><path style="opacity:1" fill="#dffae2" d="M 422.5,228.5 C 423.848,227.399 425.348,226.399 427,225.5C 427.497,222.854 427.664,220.187 427.5,217.5C 422.293,219.569 416.96,221.236 411.5,222.5C 411.414,221.504 411.748,220.671 412.5,220C 417.552,217.847 422.885,216.347 428.5,215.5C 428.824,219.555 428.491,223.555 427.5,227.5C 425.929,228.309 424.262,228.643 422.5,228.5 Z"/></g>
<g><path style="opacity:1" fill="#37b248" d="M 208.5,213.5 C 208.5,232.5 208.5,251.5 208.5,270.5C 202.167,270.5 195.833,270.5 189.5,270.5C 158.331,269.833 126.997,269.167 95.5,268.5C 95,267.5 94.5,266.5 94,265.5C 93.6667,265.833 93.3333,266.167 93,266.5C 89.4707,265.869 85.9707,265.036 82.5,264C 85.1846,260.156 88.6846,258.989 93,260.5C 94.0588,260.37 94.8921,259.87 95.5,259C 129.401,258.54 163.234,258.373 197,258.5C 197.5,258.167 198,257.833 198.5,257.5C 197.478,256.646 196.645,255.646 196,254.5C 195.5,240.837 195.333,227.171 195.5,213.5C 199.833,212.167 204.167,212.167 208.5,213.5 Z"/></g>
<g><path style="opacity:1" fill="#e1fce6" d="M 436.5,213.5 C 439.366,215.432 442.366,217.099 445.5,218.5C 452.736,223.285 460.403,227.285 468.5,230.5C 466.116,230.557 463.782,230.223 461.5,229.5C 455.457,226.664 449.457,223.831 443.5,221C 440.829,218.746 438.495,216.246 436.5,213.5 Z"/></g>
<g><path style="opacity:1" fill="#8bcc94" d="M 87.5,210.5 C 87.5,225.5 87.5,240.5 87.5,255.5C 87.1667,255.5 86.8333,255.5 86.5,255.5C 86.5,240.833 86.5,226.167 86.5,211.5C 81.1667,211.5 75.8333,211.5 70.5,211.5C 70.5,231.5 70.5,251.5 70.5,271.5C 70.5,271.833 70.5,272.167 70.5,272.5C 69.5028,252.007 69.1695,231.34 69.5,210.5C 75.5,210.5 81.5,210.5 87.5,210.5 Z"/></g>
<g><path style="opacity:1" fill="#146236" d="M 165.5,206.5 C 168.833,206.5 172.167,206.5 175.5,206.5C 175.5,207.5 175.5,208.5 175.5,209.5C 159.105,210.286 145.105,216.286 133.5,227.5C 130.496,228.646 127.496,228.313 124.5,226.5C 129.642,220.687 135.642,216.02 142.5,212.5C 147.344,210.372 152.344,208.706 157.5,207.5C 160.206,207.425 162.873,207.092 165.5,206.5 Z"/></g>
<g><path style="opacity:1" fill="#4fa85d" d="M 445.5,218.5 C 447.713,219.605 449.88,219.605 452,218.5C 457.246,224.041 463.746,227.374 471.5,228.5C 471.5,226.833 471.5,225.167 471.5,223.5C 472.634,225.966 472.801,228.633 472,231.5C 470.989,230.663 469.822,230.33 468.5,230.5C 460.403,227.285 452.736,223.285 445.5,218.5 Z"/></g>
<g><path style="opacity:1" fill="#53a660" d="M 422.5,228.5 C 420.313,229.758 417.98,230.758 415.5,231.5C 418.472,228.582 421.972,226.248 426,224.5C 426.49,223.207 426.657,221.873 426.5,220.5C 419.279,222.471 411.945,224.138 404.5,225.5C 406.888,224.651 409.221,223.651 411.5,222.5C 416.96,221.236 422.293,219.569 427.5,217.5C 427.664,220.187 427.497,222.854 427,225.5C 425.348,226.399 423.848,227.399 422.5,228.5 Z"/></g>
<g><path style="opacity:1" fill="#e9fded" d="M 382.5,203.5 C 383.167,214.833 383.833,226.167 384.5,237.5C 392.486,239.294 400.153,238.294 407.5,234.5C 410.38,234.06 413.046,233.06 415.5,231.5C 417.98,230.758 420.313,229.758 422.5,228.5C 420.49,231.027 417.823,232.861 414.5,234C 409.5,235.667 404.5,237.333 399.5,239C 393.843,239.499 388.176,239.666 382.5,239.5C 382.667,228.828 382.5,218.161 382,207.5C 379.393,209.653 376.227,211.82 372.5,214C 370.866,214.494 369.199,214.66 367.5,214.5C 367.5,214.167 367.5,213.833 367.5,213.5C 371.221,211.646 374.554,209.313 377.5,206.5C 379.411,205.925 381.078,204.925 382.5,203.5 Z"/></g>
<g><path style="opacity:1" fill="#d1f5d6" d="M 462.5,217.5 C 471.89,218.231 475.557,223.231 473.5,232.5C 471.302,232.88 469.635,232.213 468.5,230.5C 469.822,230.33 470.989,230.663 472,231.5C 472.801,228.633 472.634,225.966 471.5,223.5C 468.5,221.5 465.5,219.5 462.5,217.5 Z"/></g>
<g><path style="opacity:1" fill="#3caf4d" d="M 330.5,231.5 C 330.5,231.833 330.5,232.167 330.5,232.5C 330.167,232.5 329.833,232.5 329.5,232.5C 329.5,219.167 329.5,205.833 329.5,192.5C 326.833,192.5 324.167,192.5 321.5,192.5C 321.334,202.506 321.5,212.506 322,222.5C 323.524,225.61 324.358,228.944 324.5,232.5C 322.876,232.36 321.71,233.027 321,234.5C 320.617,233.944 320.117,233.611 319.5,233.5C 320.103,228.381 319.436,223.715 317.5,219.5C 296.833,218.167 276.167,218.167 255.5,219.5C 253.74,224.553 253.073,229.886 253.5,235.5C 257.167,235.5 260.833,235.5 264.5,235.5C 261.642,236.166 258.642,236.833 255.5,237.5C 256.5,237.833 257.5,238.167 258.5,238.5C 280.458,238.393 302.458,238.393 324.5,238.5C 323.048,239.302 321.382,239.802 319.5,240C 294.167,240.667 268.833,240.667 243.5,240C 242.509,223.911 242.175,207.744 242.5,191.5C 271.833,191.5 301.167,191.5 330.5,191.5C 330.5,204.833 330.5,218.167 330.5,231.5 Z"/></g>
<g><path style="opacity:1" fill="#38b249" d="M 304.5,196.5 C 287.833,196.5 271.167,196.5 254.5,196.5C 254.5,197.5 254.5,198.5 254.5,199.5C 253.672,205.319 253.172,211.319 253,217.5C 252,218.833 251,218.833 250,217.5C 249.114,222.47 248.448,227.47 248,232.5C 247.632,231.09 246.799,230.09 245.5,229.5C 244.501,217.185 244.168,204.851 244.5,192.5C 264.836,192.333 285.169,192.5 305.5,193C 305.957,193.414 306.291,193.914 306.5,194.5C 305.757,195.182 305.091,195.849 304.5,196.5 Z"/></g>
<g><path style="opacity:1" fill="#d0f5d3" d="M 317.5,219.5 C 317.666,223.514 317.499,227.514 317,231.5C 316.5,232 316,232.5 315.5,233C 295.503,233.5 275.503,233.667 255.5,233.5C 255.5,228.833 255.5,224.167 255.5,219.5C 276.167,218.167 296.833,218.167 317.5,219.5 Z"/></g>
<g><path style="opacity:1" fill="#4ba95a" d="M 255.5,219.5 C 255.5,224.167 255.5,228.833 255.5,233.5C 275.503,233.667 295.503,233.5 315.5,233C 316,232.5 316.5,232 317,231.5C 317.499,227.514 317.666,223.514 317.5,219.5C 319.436,223.715 320.103,228.381 319.5,233.5C 318.244,233.461 317.244,233.961 316.5,235C 299.17,235.5 281.837,235.667 264.5,235.5C 260.833,235.5 257.167,235.5 253.5,235.5C 253.073,229.886 253.74,224.553 255.5,219.5 Z"/></g>
<g><path style="opacity:1" fill="#fdfefd" d="M 256.5,220.5 C 276.167,220.5 295.833,220.5 315.5,220.5C 315.5,224.167 315.5,227.833 315.5,231.5C 295.867,232.464 276.2,232.797 256.5,232.5C 256.5,228.5 256.5,224.5 256.5,220.5 Z"/></g>
<g><path style="opacity:1" fill="#4fab5b" d="M 407.5,234.5 C 400.153,238.294 392.486,239.294 384.5,237.5C 384.832,225.814 384.499,214.148 383.5,202.5C 382.893,202.624 382.56,202.957 382.5,203.5C 381.078,204.925 379.411,205.925 377.5,206.5C 378.475,204.807 379.808,203.307 381.5,202C 383.433,201.217 384.933,201.717 386,203.5C 386.5,214.495 386.667,225.495 386.5,236.5C 393.5,235.833 400.5,235.167 407.5,234.5 Z"/></g>
<g><path style="opacity:1" fill="#37b349" d="M 329.5,232.5 C 327.831,234.592 326.164,236.592 324.5,238.5C 302.458,238.393 280.458,238.393 258.5,238.5C 257.5,238.167 256.5,237.833 255.5,237.5C 258.642,236.833 261.642,236.166 264.5,235.5C 281.837,235.667 299.17,235.5 316.5,235C 317.244,233.961 318.244,233.461 319.5,233.5C 320.117,233.611 320.617,233.944 321,234.5C 321.71,233.027 322.876,232.36 324.5,232.5C 324.358,228.944 323.524,225.61 322,222.5C 321.5,212.506 321.334,202.506 321.5,192.5C 324.167,192.5 326.833,192.5 329.5,192.5C 329.5,205.833 329.5,219.167 329.5,232.5 Z"/></g>
<g><path style="opacity:1" fill="#50a25d" d="M 331.5,190.5 C 331.829,204.344 331.496,218.01 330.5,231.5C 330.5,218.167 330.5,204.833 330.5,191.5C 301.167,191.5 271.833,191.5 242.5,191.5C 242.175,207.744 242.509,223.911 243.5,240C 268.833,240.667 294.167,240.667 319.5,240C 321.382,239.802 323.048,239.302 324.5,238.5C 326.164,236.592 327.831,234.592 329.5,232.5C 329.833,232.5 330.167,232.5 330.5,232.5C 330.5,233.5 330.5,234.5 330.5,235.5C 329.512,236.795 328.512,238.128 327.5,239.5C 325.821,239.892 324.154,240.392 322.5,241C 295.502,241.5 268.502,241.667 241.5,241.5C 241.5,224.5 241.5,207.5 241.5,190.5C 271.5,190.5 301.5,190.5 331.5,190.5 Z"/></g>
<g><path style="opacity:1" fill="#4ea65a" d="M 304.5,196.5 C 308.971,195.911 312.971,196.577 316.5,198.5C 296.167,198.5 275.833,198.5 255.5,198.5C 255.5,202.833 255.5,207.167 255.5,211.5C 275.833,211.5 296.167,211.5 316.5,211.5C 296.007,212.497 275.34,212.831 254.5,212.5C 254.5,208.167 254.5,203.833 254.5,199.5C 254.5,198.5 254.5,197.5 254.5,196.5C 271.167,196.5 287.833,196.5 304.5,196.5 Z"/></g>
<g><path style="opacity:1" fill="#d5f8de" d="M 316.5,198.5 C 317.833,202.833 317.833,207.167 316.5,211.5C 296.167,211.5 275.833,211.5 255.5,211.5C 255.5,207.167 255.5,202.833 255.5,198.5C 275.833,198.5 296.167,198.5 316.5,198.5 Z"/></g>
<g><path style="opacity:1" fill="#fcfefd" d="M 256.5,199.5 C 276.5,199.5 296.5,199.5 316.5,199.5C 316.5,203.167 316.5,206.833 316.5,210.5C 296.534,209.536 276.534,209.202 256.5,209.5C 256.5,206.167 256.5,202.833 256.5,199.5 Z"/></g>
<g><path style="opacity:1" fill="#e3fee5" d="M 327.5,239.5 C 327.489,241.017 326.823,242.184 325.5,243C 297.458,243.816 269.458,243.65 241.5,242.5C 241.5,242.167 241.5,241.833 241.5,241.5C 268.502,241.667 295.502,241.5 322.5,241C 324.154,240.392 325.821,239.892 327.5,239.5 Z"/></g>
<g><path style="opacity:1" fill="#e7feed" d="M 87.5,210.5 C 88.496,224.99 88.8293,239.657 88.5,254.5C 123.167,254.5 157.833,254.5 192.5,254.5C 192.171,239.99 192.504,225.657 193.5,211.5C 193.5,226.167 193.5,240.833 193.5,255.5C 158.167,255.5 122.833,255.5 87.5,255.5C 87.5,240.5 87.5,225.5 87.5,210.5 Z"/></g>
<g><path style="opacity:1" fill="#edfcf6" d="M 175.5,211.5 C 175.657,212.873 175.49,214.207 175,215.5C 171.558,220.077 167.724,224.077 163.5,227.5C 159.179,227.301 154.845,228.134 150.5,230C 148.552,230.983 146.718,232.15 145,233.5C 144.667,232.5 144.333,231.5 144,230.5C 141.093,230.528 138.259,231.528 135.5,233.5C 134.713,232.758 134.047,231.925 133.5,231C 130.405,230.286 127.405,229.286 124.5,228C 122.888,227.28 121.388,227.446 120,228.5C 118.863,227.636 117.53,226.636 116,225.5C 115.209,224.255 114.709,222.922 114.5,221.5C 116.517,222.529 118.517,223.529 120.5,224.5C 121.671,225.345 123.005,226.011 124.5,226.5C 127.496,228.313 130.496,228.646 133.5,227.5C 135.124,227.64 136.29,226.973 137,225.5C 137.464,226.094 137.631,226.761 137.5,227.5C 137.389,228.117 137.056,228.617 136.5,229C 138.81,229.497 141.143,229.663 143.5,229.5C 145.017,229.489 146.184,228.823 147,227.5C 147.601,229.359 148.434,229.692 149.5,228.5C 156.158,227.175 162.158,224.509 167.5,220.5C 168.289,220.217 168.956,219.717 169.5,219C 167.618,218.802 165.952,218.302 164.5,217.5C 166.801,216.94 169.134,216.44 171.5,216C 172.305,214.887 172.972,213.721 173.5,212.5C 174.167,212.167 174.833,211.833 175.5,211.5 Z"/></g>
<g><path style="opacity:1" fill="#1d623d" d="M 173.5,212.5 C 172.972,213.721 172.305,214.887 171.5,216C 169.134,216.44 166.801,216.94 164.5,217.5C 156.101,219.195 149.101,223.195 143.5,229.5C 141.143,229.663 138.81,229.497 136.5,229C 137.056,228.617 137.389,228.117 137.5,227.5C 147.574,218.137 159.574,213.137 173.5,212.5 Z"/></g>
<g><path style="opacity:1" fill="#fef7e0" d="M 369.5,260.5 C 355.861,256.641 351.027,261.641 355,275.5C 357.697,278.87 361.197,280.204 365.5,279.5C 359.724,281.541 355.224,279.874 352,274.5C 350.173,276.24 350.34,277.907 352.5,279.5C 346.834,282.832 343.834,281.165 343.5,274.5C 344.682,277.009 346.682,278.343 349.5,278.5C 349.83,272.132 349.496,265.798 348.5,259.5C 347.833,264.5 347.167,269.5 346.5,274.5C 343.226,269.61 340.226,264.61 337.5,259.5C 338.496,259.414 339.329,259.748 340,260.5C 341.595,263.121 343.095,265.787 344.5,268.5C 344.833,267.167 345.167,265.833 345.5,264.5C 345.121,261.418 344.454,258.418 343.5,255.5C 347.5,256.833 351.5,258.167 355.5,259.5C 355.281,258.325 355.614,257.325 356.5,256.5C 360.765,257.439 365.098,257.772 369.5,257.5C 369.5,258.5 369.5,259.5 369.5,260.5 Z"/></g>
<g><path style="opacity:1" fill="#d3a367" d="M 369.5,260.5 C 372.499,264.824 373.165,269.491 371.5,274.5C 369.909,276.633 367.909,278.299 365.5,279.5C 361.197,280.204 357.697,278.87 355,275.5C 351.027,261.641 355.861,256.641 369.5,260.5 Z"/></g>
<g><path style="opacity:1" fill="#fef9e2" d="M 287.5,259.5 C 290.337,261.402 293.671,262.069 297.5,261.5C 295.112,266.582 291.945,271.249 288,275.5C 287.517,276.448 287.351,277.448 287.5,278.5C 286.861,277.903 286.528,277.07 286.5,276C 288.176,272.485 290.176,269.151 292.5,266C 292.355,265.228 292.022,264.561 291.5,264C 289.899,263.727 288.399,263.227 287,262.5C 286.26,261.251 286.427,260.251 287.5,259.5 Z"/></g>
<g><path style="opacity:1" fill="#fef4ce" d="M 357.5,274.5 C 365.605,276.986 369.105,273.986 368,265.5C 364.173,261.581 360.339,261.581 356.5,265.5C 360.069,259.36 364.236,259.027 369,264.5C 371.317,273.159 368.15,277.325 359.5,277C 358.619,276.292 357.953,275.458 357.5,274.5 Z"/></g>
<g><path style="opacity:1" fill="#d59c58" d="M 376.5,259.5 C 377.5,259.5 378.5,259.5 379.5,259.5C 382.656,264.472 385.823,269.472 389,274.5C 389.499,269.511 389.666,264.511 389.5,259.5C 391.453,265.074 392.12,271.074 391.5,277.5C 390.749,278.573 389.749,278.74 388.5,278C 385.292,273.753 382.458,269.253 380,264.5C 379.31,263.262 378.81,263.262 378.5,264.5C 377.676,268.312 377.176,272.312 377,276.5C 376.501,270.843 376.334,265.176 376.5,259.5 Z"/></g>
<g><path style="opacity:1" fill="#fdfcf6" d="M 357.5,274.5 C 356.06,273.054 355.393,271.221 355.5,269C 355.514,267.615 355.848,266.449 356.5,265.5C 360.339,261.581 364.173,261.581 368,265.5C 369.105,273.986 365.605,276.986 357.5,274.5 Z"/></g>
<g><path style="opacity:1" fill="#fefcec" d="M 431.5,264.5 C 445.847,264.396 460.18,264.73 474.5,265.5C 474.357,267.262 474.691,268.929 475.5,270.5C 474.271,271.281 472.938,271.781 471.5,272C 454.5,272.667 437.5,272.667 420.5,272C 418.302,270.33 417.968,268.33 419.5,266C 423.688,265.824 427.688,265.324 431.5,264.5 Z"/></g>
<g><path style="opacity:1" fill="#d59c55" d="M 307.5,259.5 C 307.5,262.167 307.5,264.833 307.5,267.5C 311.167,267.5 314.833,267.5 318.5,267.5C 318.5,264.833 318.5,262.167 318.5,259.5C 319.5,259.5 320.5,259.5 321.5,259.5C 321.5,265.833 321.5,272.167 321.5,278.5C 319.612,276.012 318.945,273.012 319.5,269.5C 315.5,269.5 311.5,269.5 307.5,269.5C 307.5,272.5 307.5,275.5 307.5,278.5C 306.182,275.742 305.515,272.576 305.5,269C 305.515,265.424 306.182,262.258 307.5,259.5 Z"/></g>
<g><path style="opacity:1" fill="#fef7e2" d="M 337.5,259.5 C 336.167,259.5 334.833,259.5 333.5,259.5C 333.17,265.868 333.504,272.202 334.5,278.5C 335.107,278.376 335.44,278.043 335.5,277.5C 336.167,273.167 336.833,268.833 337.5,264.5C 339.432,267.366 341.099,270.366 342.5,273.5C 341.518,272.859 340.518,272.193 339.5,271.5C 338.681,274.404 339.347,277.071 341.5,279.5C 341.192,280.308 340.692,280.975 340,281.5C 338.287,277.588 336.453,277.588 334.5,281.5C 332.803,280.636 331.637,279.303 331,277.5C 328.667,281.5 326.333,281.5 324,277.5C 319.2,284.671 317.034,284.005 317.5,275.5C 318.434,276.568 318.768,277.901 318.5,279.5C 319.791,279.737 320.791,279.404 321.5,278.5C 322.49,272.69 322.823,266.69 322.5,260.5C 323.117,260.611 323.617,260.944 324,261.5C 324.329,257.96 326.162,256.794 329.5,258C 330.282,260.74 330.782,263.574 331,266.5C 331.497,263.854 331.664,261.187 331.5,258.5C 333.735,258.205 335.735,258.539 337.5,259.5 Z"/></g>
<g><path style="opacity:1" fill="#c69e5d" d="M 326.5,259.5 C 327.818,262.258 328.485,265.424 328.5,269C 328.167,272.167 327.833,275.333 327.5,278.5C 326.504,272.202 326.17,265.868 326.5,259.5 Z"/></g>
<g><path style="opacity:1" fill="#fff7db" d="M 379.5,259.5 C 380.239,259.369 380.906,259.536 381.5,260C 383.436,262.037 385.102,264.203 386.5,266.5C 387.132,263.898 388.132,261.564 389.5,259.5C 389.666,264.511 389.499,269.511 389,274.5C 385.823,269.472 382.656,264.472 379.5,259.5 Z"/></g>
<g><path style="opacity:1" fill="#fef7df" d="M 379.5,259.5 C 378.5,259.5 377.5,259.5 376.5,259.5C 375.51,265.645 375.177,271.978 375.5,278.5C 376.5,278.5 377.5,278.5 378.5,278.5C 378.5,273.833 378.5,269.167 378.5,264.5C 378.81,263.262 379.31,263.262 380,264.5C 382.458,269.253 385.292,273.753 388.5,278C 389.749,278.74 390.749,278.573 391.5,277.5C 392.461,275.735 392.795,273.735 392.5,271.5C 393.5,271.5 394.5,271.5 395.5,271.5C 397.098,277.64 401.098,280.307 407.5,279.5C 407.03,280.693 406.03,281.36 404.5,281.5C 401.278,280.637 398.111,279.637 395,278.5C 393.307,279.184 391.807,280.184 390.5,281.5C 386.824,279.124 383.824,276.124 381.5,272.5C 380.515,274.772 379.681,277.105 379,279.5C 377.644,280.38 376.144,280.714 374.5,280.5C 374.664,277.813 374.497,275.146 374,272.5C 373.583,273.756 372.75,274.423 371.5,274.5C 373.165,269.491 372.499,264.824 369.5,260.5C 371.109,260.094 372.443,260.094 373.5,260.5C 373.069,261.293 372.735,262.127 372.5,263C 373.161,265.464 373.661,267.964 374,270.5C 374.333,266.5 374.667,262.5 375,258.5C 377.045,256.957 378.545,257.29 379.5,259.5 Z"/></g>
<g><path style="opacity:1" fill="#fff6d6" d="M 389.5,259.5 C 390.209,258.596 391.209,258.263 392.5,258.5C 393.42,266.271 394.753,266.271 396.5,258.5C 398.5,258.5 400.5,258.5 402.5,258.5C 396.822,260.846 394.489,265.18 395.5,271.5C 394.5,271.5 393.5,271.5 392.5,271.5C 392.795,273.735 392.461,275.735 391.5,277.5C 392.12,271.074 391.453,265.074 389.5,259.5 Z"/></g>
<g><path style="opacity:1" fill="#fdf8e6" d="M 412.5,262.5 C 413.995,262.415 414.995,263.081 415.5,264.5C 414.147,265.524 413.48,266.857 413.5,268.5C 410.753,268.187 408.086,268.52 405.5,269.5C 407.396,270.466 409.396,270.799 411.5,270.5C 410.736,276.392 407.402,278.559 401.5,277C 400.667,276.167 399.833,275.333 399,274.5C 398.022,270.1 398.522,265.933 400.5,262C 404.932,259.586 408.599,260.419 411.5,264.5C 412.298,264.043 412.631,263.376 412.5,262.5 Z"/></g>
<g><path style="opacity:1" fill="#d2a875" d="M 227.5,267.5 C 296.833,268.167 296.833,268.833 227.5,269.5C 227.5,268.833 227.5,268.167 227.5,267.5 Z"/></g>
<g><path style="opacity:1" fill="#fcfcf7" d="M 297.5,268.5 C 297.738,266.596 298.738,265.262 300.5,264.5C 301.822,264.67 302.989,264.337 304,263.5C 304.682,265.938 304.182,268.105 302.5,270C 303.148,271.44 303.481,272.94 303.5,274.5C 300.482,274.665 297.482,274.498 294.5,274C 295.758,272.259 296.758,270.426 297.5,268.5 Z"/></g>
<g><path style="opacity:1" fill="#f9e1b7" d="M 321.5,278.5 C 320.791,279.404 319.791,279.737 318.5,279.5C 318.768,277.901 318.434,276.568 317.5,275.5C 317.5,273.833 317.5,272.167 317.5,270.5C 314.813,270.336 312.146,270.503 309.5,271C 308.877,273.607 308.21,276.107 307.5,278.5C 307.5,275.5 307.5,272.5 307.5,269.5C 311.5,269.5 315.5,269.5 319.5,269.5C 318.945,273.012 319.612,276.012 321.5,278.5 Z"/></g>
<g><path style="opacity:1" fill="#e7c496" d="M 420.5,267.5 C 437.833,267.5 455.167,267.5 472.5,267.5C 472.5,268.5 472.5,269.5 472.5,270.5C 455.167,270.5 437.833,270.5 420.5,270.5C 420.5,269.5 420.5,268.5 420.5,267.5 Z"/></g>
<g><path style="opacity:1" fill="#44aa53" d="M 86.5,255.5 C 85.5042,241.677 85.1709,227.677 85.5,213.5C 80.9014,213.2 76.4014,213.533 72,214.5C 71.5001,233.164 71.3334,251.83 71.5,270.5C 110.833,270.5 150.167,270.5 189.5,270.5C 195.833,270.5 202.167,270.5 208.5,270.5C 208.5,251.5 208.5,232.5 208.5,213.5C 209.497,232.659 209.83,251.993 209.5,271.5C 163.167,271.5 116.833,271.5 70.5,271.5C 70.5,251.5 70.5,231.5 70.5,211.5C 75.8333,211.5 81.1667,211.5 86.5,211.5C 86.5,226.167 86.5,240.833 86.5,255.5 Z"/></g>
<g><path style="opacity:1" fill="#39b14b" d="M 86.5,255.5 C 86.8333,255.5 87.1667,255.5 87.5,255.5C 88.9516,256.302 90.6183,256.802 92.5,257C 125.5,257.667 158.5,257.667 191.5,257C 192.416,256.722 193.082,256.222 193.5,255.5C 194.167,241.5 194.833,227.5 195.5,213.5C 195.333,227.171 195.5,240.837 196,254.5C 196.645,255.646 197.478,256.646 198.5,257.5C 198,257.833 197.5,258.167 197,258.5C 163.234,258.373 129.401,258.54 95.5,259C 94.8921,259.87 94.0588,260.37 93,260.5C 88.6846,258.989 85.1846,260.156 82.5,264C 85.9707,265.036 89.4707,265.869 93,266.5C 93.3333,266.167 93.6667,265.833 94,265.5C 94.5,266.5 95,267.5 95.5,268.5C 126.997,269.167 158.331,269.833 189.5,270.5C 150.167,270.5 110.833,270.5 71.5,270.5C 71.3334,251.83 71.5001,233.164 72,214.5C 76.4014,213.533 80.9014,213.2 85.5,213.5C 85.1709,227.677 85.5042,241.677 86.5,255.5 Z"/></g>
<g><path style="opacity:1" fill="#5db168" d="M 87.5,255.5 C 122.833,255.5 158.167,255.5 193.5,255.5C 193.082,256.222 192.416,256.722 191.5,257C 158.5,257.667 125.5,257.667 92.5,257C 90.6183,256.802 88.9516,256.302 87.5,255.5 Z"/></g>
<g><path style="opacity:1" fill="#235f3f" d="M 167.5,220.5 C 162.158,224.509 156.158,227.175 149.5,228.5C 148.668,227.671 149.001,226.838 150.5,226C 154.919,222.915 159.753,220.748 165,219.5C 166.07,219.528 166.903,219.861 167.5,220.5 Z"/></g>
<g><path style="opacity:1" fill="#c3ead7" d="M 164.5,217.5 C 165.952,218.302 167.618,218.802 169.5,219C 168.956,219.717 168.289,220.217 167.5,220.5C 166.903,219.861 166.07,219.528 165,219.5C 159.753,220.748 154.919,222.915 150.5,226C 149.001,226.838 148.668,227.671 149.5,228.5C 148.434,229.692 147.601,229.359 147,227.5C 146.184,228.823 145.017,229.489 143.5,229.5C 149.101,223.195 156.101,219.195 164.5,217.5 Z"/></g>
<g><path style="opacity:1" fill="#22653f" d="M 110.5,217.5 C 114.915,217.015 119.248,218.015 123.5,220.5C 124.262,222.781 123.262,224.114 120.5,224.5C 118.517,223.529 116.517,222.529 114.5,221.5C 113.5,219.833 112.167,218.5 110.5,217.5 Z"/></g>
<g><path style="opacity:1" fill="#fcf0d4" d="M 227.5,267.5 C 245.326,266.503 263.326,266.17 281.5,266.5C 281.714,268.144 281.38,269.644 280.5,271C 263.167,271.667 245.833,271.667 228.5,271C 227.944,270.617 227.611,270.117 227.5,269.5C 296.833,268.833 296.833,268.167 227.5,267.5 Z"/></g>
<g><path style="opacity:1" fill="#5fa468" d="M 70.5,272.5 C 70.5,272.167 70.5,271.833 70.5,271.5C 116.833,271.5 163.167,271.5 209.5,271.5C 209.83,251.993 209.497,232.659 208.5,213.5C 204.167,212.167 199.833,212.167 195.5,213.5C 194.833,227.5 194.167,241.5 193.5,255.5C 193.5,240.833 193.5,226.167 193.5,211.5C 198.975,210.511 204.642,210.178 210.5,210.5C 210.5,231.167 210.5,251.833 210.5,272.5C 163.833,272.5 117.167,272.5 70.5,272.5 Z"/></g>
<g><path style="opacity:1" fill="#d5a265" d="M 287.5,259.5 C 287.833,259.5 288.167,259.5 288.5,259.5C 293.214,259.173 297.88,259.507 302.5,260.5C 301.82,261.86 301.153,263.193 300.5,264.5C 298.738,265.262 297.738,266.596 297.5,268.5C 294.835,270.64 292.502,273.14 290.5,276C 291.094,276.464 291.761,276.631 292.5,276.5C 294.969,277.317 297.635,277.817 300.5,278C 296.179,278.499 291.846,278.666 287.5,278.5C 287.351,277.448 287.517,276.448 288,275.5C 291.945,271.249 295.112,266.582 297.5,261.5C 293.671,262.069 290.337,261.402 287.5,259.5 Z"/></g>
<g><path style="opacity:1" fill="#fef2cd" d="M 322.5,260.5 C 322.823,266.69 322.49,272.69 321.5,278.5C 321.5,272.167 321.5,265.833 321.5,259.5C 320.5,259.5 319.5,259.5 318.5,259.5C 318.5,262.167 318.5,264.833 318.5,267.5C 314.833,267.5 311.167,267.5 307.5,267.5C 307.5,264.833 307.5,262.167 307.5,259.5C 309.545,260.923 310.545,262.923 310.5,265.5C 312.833,265.5 315.167,265.5 317.5,265.5C 317.5,263.167 317.5,260.833 317.5,258.5C 319.781,258.077 321.448,258.744 322.5,260.5 Z"/></g>
<g><path style="opacity:1" fill="#d49d56" d="M 337.5,259.5 C 340.226,264.61 343.226,269.61 346.5,274.5C 347.167,269.5 347.833,264.5 348.5,259.5C 349.496,265.798 349.83,272.132 349.5,278.5C 346.682,278.343 344.682,277.009 343.5,274.5C 343.5,273.833 343.167,273.5 342.5,273.5C 341.099,270.366 339.432,267.366 337.5,264.5C 337.44,263.957 337.107,263.624 336.5,263.5C 335.507,268.12 335.173,272.786 335.5,277.5C 335.44,278.043 335.107,278.376 334.5,278.5C 333.504,272.202 333.17,265.868 333.5,259.5C 334.833,259.5 336.167,259.5 337.5,259.5 Z"/></g>
<g><path style="opacity:1" fill="#f6d39f" d="M 337.5,264.5 C 336.833,268.833 336.167,273.167 335.5,277.5C 335.173,272.786 335.507,268.12 336.5,263.5C 337.107,263.624 337.44,263.957 337.5,264.5 Z"/></g>
<g><path style="opacity:1" fill="#d0a266" d="M 402.5,258.5 C 406.475,258.486 409.808,259.819 412.5,262.5C 412.631,263.376 412.298,264.043 411.5,264.5C 408.599,260.419 404.932,259.586 400.5,262C 398.522,265.933 398.022,270.1 399,274.5C 399.833,275.333 400.667,276.167 401.5,277C 407.402,278.559 410.736,276.392 411.5,270.5C 409.396,270.799 407.396,270.466 405.5,269.5C 408.086,268.52 410.753,268.187 413.5,268.5C 413.665,271.85 413.498,275.183 413,278.5C 411.045,276.482 409.211,276.815 407.5,279.5C 401.098,280.307 397.098,277.64 395.5,271.5C 394.489,265.18 396.822,260.846 402.5,258.5 Z"/></g>
<g><path style="opacity:1" fill="#e8ba81" d="M 376.5,259.5 C 376.334,265.176 376.501,270.843 377,276.5C 377.176,272.312 377.676,268.312 378.5,264.5C 378.5,269.167 378.5,273.833 378.5,278.5C 377.5,278.5 376.5,278.5 375.5,278.5C 375.177,271.978 375.51,265.645 376.5,259.5 Z"/></g>
<g><path style="opacity:1" fill="#fef6db" d="M 288.5,259.5 C 294.833,258.167 301.167,258.167 307.5,259.5C 306.182,262.258 305.515,265.424 305.5,269C 305.515,272.576 306.182,275.742 307.5,278.5C 307.53,279.497 307.03,280.164 306,280.5C 300.147,280.722 294.314,280.389 288.5,279.5C 293.167,279.5 297.833,279.5 302.5,279.5C 302.5,278.5 302.5,277.5 302.5,276.5C 299.167,276.5 295.833,276.5 292.5,276.5C 291.761,276.631 291.094,276.464 290.5,276C 292.502,273.14 294.835,270.64 297.5,268.5C 296.758,270.426 295.758,272.259 294.5,274C 297.482,274.498 300.482,274.665 303.5,274.5C 303.481,272.94 303.148,271.44 302.5,270C 304.182,268.105 304.682,265.938 304,263.5C 302.989,264.337 301.822,264.67 300.5,264.5C 301.153,263.193 301.82,261.86 302.5,260.5C 297.88,259.507 293.214,259.173 288.5,259.5 Z"/></g>
<g><path style="opacity:1" fill="#f0cc9f" d="M 292.5,276.5 C 295.833,276.5 299.167,276.5 302.5,276.5C 302.5,277.5 302.5,278.5 302.5,279.5C 297.833,279.5 293.167,279.5 288.5,279.5C 287.833,279.5 287.5,279.167 287.5,278.5C 291.846,278.666 296.179,278.499 300.5,278C 297.635,277.817 294.969,277.317 292.5,276.5 Z"/></g>
</svg>
